<?xml version="1.0" encoding="utf-8"?>
<!-- Generator: Adobe Illustrator 26.0.1, SVG Export Plug-In . SVG Version: 6.00 Build 0)  -->
<svg version="1.1" id="Layer_1" xmlns="http://www.w3.org/2000/svg" xmlns:xlink="http://www.w3.org/1999/xlink" x="0px" y="0px"
	 viewBox="0 0 1920 1080" style="enable-background:new 0 0 1920 1080;" xml:space="preserve">
<style type="text/css">
	.st0{fill:url(#SVGID_1_);}
	.st1{fill:#4038DB;fill-opacity:0.1;}
	.st2{fill:#4038DB;fill-opacity:8.000000e-02;}
</style>
<linearGradient id="SVGID_1_" gradientUnits="userSpaceOnUse" x1="89.1999" y1="54.9501" x2="1838.6998" y2="1029.4502">
	<stop  offset="0" style="stop-color:#FFFFFF"/>
	<stop  offset="1" style="stop-color:#F5F3FF"/>
</linearGradient>
<rect class="st0" width="1920" height="1080"/>
<g>
	<g>
		<path class="st1" d="M72,0v57c0,8.3-6.7,15-15,15H0V0H72z"/>
		<path class="st1" d="M37.5,22.5h69c8.3,0,15,6.7,15,15v69c0,8.3-6.7,15-15,15h-69c-8.3,0-15-6.7-15-15v-69
			C22.5,29.2,29.2,22.5,37.5,22.5z"/>
		<path class="st1" d="M87,72h69c8.3,0,15,6.7,15,15v69c0,8.3-6.7,15-15,15H87c-8.3,0-15-6.7-15-15V87C72,78.7,78.7,72,87,72z"/>
	</g>
	<g>
		<path class="st1" d="M1706,865h94c8.3,0,15,6.7,15,15v94c0,8.3-6.7,15-15,15h-94c-8.3,0-15-6.7-15-15v-94
			C1691,871.7,1697.7,865,1706,865z"/>
		<path class="st1" d="M1768,927h94c8.3,0,15,6.7,15,15v94c0,8.3-6.7,15-15,15h-94c-8.3,0-15-6.7-15-15v-94
			C1753,933.7,1759.7,927,1768,927z"/>
		<path class="st1" d="M1920,989v91h-105v-76c0-8.3,6.7-15,15-15H1920z"/>
	</g>
	<g>
		<path class="st2" d="M1828.1,0v34.8c0,8.3,5.8,18.3,13,22.5l40.4,23.3l38.5,22.2V0h-66.2H1828.1z"/>
		<path class="st2" d="M1828.1,0h-54v18.7v49.7c0,8.3,5.8,18.4,13,22.5l41.3,23.8l40.1,23.2c7.2,4.1,13,0.8,13-7.5V80.7V31
			c0-8.3-5.8-18.4-13-22.5L1853.8,0H1828.1z"/>
		<path class="st2" d="M1741.8,0l32.3,18.7l41.3,23.8c7.2,4.1,13,14.2,13,22.5v49.7v49.7c0,8.3-5.8,11.6-13,7.5l-81.4-47
			c-7.2-4.1-13-14.2-13-22.5V3c0-1.1,0.1-2.1,0.3-3H1741.8z"/>
	</g>
	<g>
		<path class="st2" d="M0,932.6l16-9.2l43-24.8c7.2-4.1,13-14.2,13-22.5v-46.7V782c0-8.3-5.8-11.6-13-7.5L0,808.6V932.6z"/>
		<path class="st2" d="M29,854.2l86-49.7c7.2-4.1,13-0.8,13,7.5v94c0,8.3-5.8,18.4-13,22.5l-86,49.7c-7.2,4.2-13,0.8-13-7.5v-94
			C16,868.4,21.8,858.3,29,854.2z"/>
		<path class="st2" d="M85,883.2l86-49.7c7.2-4.1,13-0.8,13,7.5v94c0,8.3-5.8,18.4-13,22.5l-86,49.7c-7.2,4.2-13,0.8-13-7.5v-94
			C72,897.4,77.8,887.3,85,883.2z"/>
	</g>
	<g>
		<path class="st2" d="M792,1080h-56v-56.3c0-8.3,5.8-18.4,13-22.5l86-49.7c7.2-4.2,13-0.8,13,7.5v47.3v46.7c0,8.3-5.8,18.3-13,22.5
			l-7.8,4.5H792z"/>
		<path class="st2" d="M792,1080v-26.3c0-8.3,5.8-18.4,13-22.5l43-24.8l43-24.8c7.2-4.2,13-0.8,13,7.5v46.3v44.7h-55.8h-21H792z"/>
		<path class="st2" d="M960,1018v62H848.2c1-7.7,6.4-16.1,12.8-19.8l43-24.8l43-24.8C954.2,1006.3,960,1009.7,960,1018z"/>
	</g>
</g>
</svg>
