<svg width="117" height="69" viewBox="0 0 117 69" fill="none" xmlns="http://www.w3.org/2000/svg">
<path d="M12.8027 50.5205V31.9844H19.2969V50.5205C19.2969 52.3265 18.8825 53.8913 18.0537 55.2148C17.2373 56.5384 16.124 57.5651 14.7139 58.2949C13.3161 59.0124 11.7451 59.3711 10.001 59.3711C8.19499 59.3711 6.58691 59.068 5.17676 58.4619C3.77897 57.8558 2.67806 56.9219 1.87402 55.6602C1.08236 54.3984 0.686523 52.7904 0.686523 50.8359H7.21777C7.21777 51.7513 7.32292 52.4688 7.5332 52.9883C7.74349 53.4954 8.05273 53.8542 8.46094 54.0645C8.88151 54.2624 9.39486 54.3613 10.001 54.3613C10.5947 54.3613 11.0957 54.2129 11.5039 53.916C11.9245 53.6068 12.2461 53.1676 12.4688 52.5986C12.6914 52.0173 12.8027 51.3245 12.8027 50.5205ZM46.2939 44.9541V46.0488C46.2939 48.1146 46.0033 49.9701 45.4219 51.6152C44.8529 53.248 44.0426 54.6458 42.9912 55.8086C41.9398 56.959 40.6966 57.8434 39.2617 58.4619C37.8268 59.068 36.2435 59.3711 34.5117 59.3711C32.7676 59.3711 31.1719 59.068 29.7246 58.4619C28.2897 57.8434 27.0404 56.959 25.9766 55.8086C24.9251 54.6458 24.1087 53.248 23.5273 51.6152C22.9583 49.9701 22.6738 48.1146 22.6738 46.0488V44.9541C22.6738 42.8883 22.9583 41.0329 23.5273 39.3877C24.1087 37.7425 24.9189 36.3447 25.958 35.1943C27.0094 34.0316 28.2526 33.1471 29.6875 32.541C31.1348 31.9225 32.7305 31.6133 34.4746 31.6133C36.2064 31.6133 37.7897 31.9225 39.2246 32.541C40.6719 33.1471 41.9212 34.0316 42.9727 35.1943C44.0241 36.3447 44.8405 37.7425 45.4219 39.3877C46.0033 41.0329 46.2939 42.8883 46.2939 44.9541ZM39.6885 46.0488V44.917C39.6885 43.5811 39.571 42.4059 39.3359 41.3916C39.1133 40.3649 38.7793 39.5052 38.334 38.8125C37.8887 38.1198 37.3382 37.6003 36.6826 37.2539C36.0394 36.8952 35.3034 36.7158 34.4746 36.7158C33.6087 36.7158 32.8542 36.8952 32.2109 37.2539C31.5677 37.6003 31.0296 38.1198 30.5967 38.8125C30.1637 39.5052 29.8359 40.3649 29.6133 41.3916C29.403 42.4059 29.2979 43.5811 29.2979 44.917V46.0488C29.2979 47.3724 29.403 48.5475 29.6133 49.5742C29.8359 50.5885 30.1637 51.4482 30.5967 52.1533C31.042 52.8584 31.5863 53.3903 32.2295 53.749C32.8851 54.1077 33.6458 54.2871 34.5117 54.2871C35.3405 54.2871 36.0765 54.1077 36.7197 53.749C37.363 53.3903 37.901 52.8584 38.334 52.1533C38.7793 51.4482 39.1133 50.5885 39.3359 49.5742C39.571 48.5475 39.6885 47.3724 39.6885 46.0488ZM60.6924 47.5146H53.7344L53.6973 43.2471H59.3379C60.3522 43.2471 61.1624 43.1357 61.7686 42.9131C62.3747 42.6781 62.8138 42.3379 63.0859 41.8926C63.3704 41.4473 63.5127 40.8906 63.5127 40.2227C63.5127 39.4557 63.3704 38.8372 63.0859 38.3672C62.8014 37.8971 62.3499 37.557 61.7314 37.3467C61.1253 37.124 60.3398 37.0127 59.375 37.0127H56.1836V59H49.6709V31.9844H59.375C61.0449 31.9844 62.5355 32.139 63.8467 32.4482C65.1579 32.7451 66.2712 33.2028 67.1865 33.8213C68.1143 34.4398 68.8193 35.2191 69.3018 36.1592C69.7842 37.0869 70.0254 38.1816 70.0254 39.4434C70.0254 40.5443 69.7904 41.5771 69.3203 42.542C68.8503 43.5068 68.0648 44.2923 66.9639 44.8984C65.8753 45.4922 64.3848 45.8014 62.4922 45.8262L60.6924 47.5146ZM60.4326 59H52.1572L54.3838 53.9902H60.4326C61.3232 53.9902 62.0345 53.8542 62.5664 53.582C63.1107 53.2975 63.5003 52.9264 63.7354 52.4688C63.9827 51.9987 64.1064 51.4792 64.1064 50.9102C64.1064 50.2174 63.9889 49.6175 63.7539 49.1104C63.5312 48.6032 63.1725 48.2135 62.6777 47.9414C62.1829 47.6569 61.5212 47.5146 60.6924 47.5146H55.2188L55.2559 43.2471H61.8057L63.3271 44.9541C65.1331 44.8799 66.5618 45.1335 67.6133 45.7148C68.6771 46.2962 69.4378 47.0632 69.8955 48.0156C70.3532 48.9681 70.582 49.9639 70.582 51.0029C70.582 52.7718 70.1986 54.25 69.4316 55.4375C68.6771 56.625 67.5452 57.5156 66.0361 58.1094C64.527 58.7031 62.6592 59 60.4326 59Z" fill="#313132"/>
<path d="M80.5088 38.9238V59H74.2373V38.9238H80.5088ZM73.8662 33.7471C73.8662 32.8564 74.1878 32.1266 74.8311 31.5576C75.4743 30.9886 76.3092 30.7041 77.3359 30.7041C78.3626 30.7041 79.1976 30.9886 79.8408 31.5576C80.484 32.1266 80.8057 32.8564 80.8057 33.7471C80.8057 34.6377 80.484 35.3675 79.8408 35.9365C79.1976 36.5055 78.3626 36.79 77.3359 36.79C76.3092 36.79 75.4743 36.5055 74.8311 35.9365C74.1878 35.3675 73.8662 34.6377 73.8662 33.7471ZM92.0312 59H85.7412V37.291C85.7412 35.7324 86.0566 34.4212 86.6875 33.3574C87.3184 32.2936 88.209 31.4896 89.3594 30.9453C90.5098 30.3887 91.8704 30.1104 93.4414 30.1104C93.9857 30.1104 94.499 30.1475 94.9814 30.2217C95.4639 30.2959 95.9339 30.3887 96.3916 30.5L96.4102 35.1016C96.1875 35.0397 95.9587 34.9964 95.7236 34.9717C95.4886 34.9469 95.1979 34.9346 94.8516 34.9346C94.2454 34.9346 93.7321 35.0273 93.3115 35.2129C92.891 35.3861 92.5693 35.652 92.3467 36.0107C92.1364 36.3571 92.0312 36.7839 92.0312 37.291V59ZM95.9277 38.9238V43.2656H82.8467V38.9238H95.9277ZM104.333 56.6436L109.528 38.9238H116.245L108.174 61.9873C108.001 62.4945 107.772 63.0387 107.487 63.6201C107.203 64.2139 106.813 64.7767 106.318 65.3086C105.824 65.8405 105.187 66.2734 104.407 66.6074C103.64 66.9414 102.688 67.1084 101.55 67.1084C100.944 67.1084 100.498 67.0775 100.214 67.0156C99.9417 66.9661 99.5212 66.8734 98.9521 66.7373V62.2656C99.113 62.2656 99.249 62.2656 99.3604 62.2656C99.484 62.2656 99.6201 62.2656 99.7686 62.2656C100.437 62.2656 100.968 62.1976 101.364 62.0615C101.772 61.9255 102.082 61.7275 102.292 61.4678C102.515 61.208 102.688 60.8926 102.812 60.5215L104.333 56.6436ZM103.016 38.9238L106.968 52.9697L107.654 59.5938H103.461L96.3174 38.9238H103.016Z" fill="#4038DB"/>
<path d="M65.0906 16.24C65.6531 16.5956 66.1392 17.0601 66.5211 17.6068C66.9029 18.1536 67.173 18.7719 67.3159 19.4265C67.4589 20.0811 67.4719 20.7592 67.3542 21.422C67.2365 22.0848 66.9905 22.7194 66.6301 23.2895C65.9022 24.4409 64.7528 25.2597 63.4347 25.566C62.1166 25.8723 60.7379 25.6408 59.6017 24.9225C59.0391 24.5669 58.553 24.1024 58.1712 23.5557C57.7894 23.009 57.5193 22.3906 57.3763 21.736C57.2333 21.0814 57.2203 20.4033 57.338 19.7405C57.4557 19.0777 57.7018 18.4432 58.0622 17.8731C58.79 16.7217 59.9395 15.9028 61.2575 15.5965C62.5756 15.2903 63.9544 15.5217 65.0906 16.24Z" fill="#4038DB"/>
<path d="M48.5068 5.80425C49.3955 4.26486 50.8594 3.1416 52.5764 2.68154C54.2933 2.22148 56.1227 2.46233 57.6621 3.35109C59.2015 4.23986 60.3248 5.70374 60.7848 7.4207C61.2449 9.13766 61.004 10.967 60.1153 12.5064C59.2265 14.0458 57.7626 15.1691 56.0457 15.6292C54.3287 16.0892 52.4993 15.8484 50.9599 14.9596C49.4205 14.0708 48.2973 12.607 47.8372 10.89C47.3772 9.17304 47.618 7.34364 48.5068 5.80425Z" fill="#313132"/>
</svg>
