<svg width="78" height="72" viewBox="0 0 78 72" fill="none" xmlns="http://www.w3.org/2000/svg">
<path d="M57.2115 42.0593C58.6685 42.9804 59.9274 44.1833 60.9163 45.5993C61.9052 47.0153 62.6047 48.6166 62.975 50.312C63.3452 52.0073 63.3789 53.7634 63.0741 55.48C62.7693 57.1966 62.132 58.84 61.1986 60.3165C59.3136 63.2984 56.3368 65.4192 52.9231 66.2124C49.5095 67.0056 45.9386 66.4061 42.9961 64.5459C41.5391 63.6248 40.2802 62.422 39.2913 61.006C38.3024 59.59 37.6029 57.9886 37.2327 56.2933C36.8624 54.5979 36.8287 52.8418 37.1335 51.1253C37.4383 49.4087 38.0756 47.7652 39.009 46.2887C40.8941 43.3068 43.8709 41.186 47.2845 40.3929C50.6982 39.5997 54.269 40.1991 57.2115 42.0593Z" fill="#4038DB"/>
<path d="M14.2618 15.0322C16.5636 11.0454 20.3548 8.13632 24.8015 6.94484C29.2482 5.75335 33.9861 6.3771 37.9729 8.67888C41.9597 10.9807 44.8688 14.7719 46.0603 19.2186C47.2518 23.6653 46.628 28.4032 44.3263 32.3899C42.0245 36.3767 38.2332 39.2859 33.7865 40.4774C29.3398 41.6689 24.602 41.0451 20.6152 38.7433C16.6284 36.4415 13.7193 32.6503 12.5278 28.2036C11.3363 23.7569 11.96 19.019 14.2618 15.0322Z" fill="#313132"/>
</svg>
